<svg width="100%" height="20%" id="svg" viewBox="0 0 1440 490" xmlns="http://www.w3.org/2000/svg" class="transition duration-300 ease-in-out delay-150">
  <path d="M 0,500 L 0,187 C 57.59351988217966,148.1990058910162 115.18703976435933,109.3980117820324 178,129 C 240.81296023564067,148.6019882179676 308.8453608247424,226.60695876288662 376,238 C 443.1546391752576,249.39304123711338 509.4315169366715,194.1741531664212 571,157 C 632.5684830633285,119.82584683357878 689.4285714285714,100.69642857142858 743,129 C 796.5714285714286,157.30357142857142 846.8541973490427,233.0401325478645 896,240 C 945.1458026509573,246.9598674521355 993.1546391752577,185.14304123711338 1052,189 C 1110.8453608247423,192.85695876288662 1180.5272459499265,262.3877025036819 1247,273 C 1313.4727540500735,283.6122974963181 1376.7363770250367,235.30614874815905 1440,187 L 1440,500 L 0,500 Z" stroke="none" stroke-width="0" fill="#fff" fill-opacity="1" class="transition-all duration-300 ease-in-out delay-150 path-0" transform="rotate(-180 720 250)"></path>
</svg>